<svg version="1.1" id="Layer_1" xmlns="http://www.w3.org/2000/svg" xmlns:xlink="http://www.w3.org/1999/xlink" x="0px" y="0px"
	 width="100%" viewBox="0 0 1024 768" enable-background="new 0 0 1024 768" xml:space="preserve">
<path fill="#000000" opacity="1.000000" stroke="none"
	d="
M230.562195,378.497375
	C233.853104,383.098358 235.982849,388.071228 240.047211,392.254944
	C242.847290,390.075928 244.309723,387.071381 246.103165,384.376465
	C260.503082,362.738495 274.917877,341.110046 289.190643,319.388306
	C291.243256,316.264465 293.573975,314.761749 297.351837,314.912720
	C302.842621,315.132141 308.362671,315.195496 313.844849,314.881836
	C318.704803,314.603760 320.207306,316.575775 320.178955,321.279358
	C320.021118,347.444763 320.086121,373.611542 320.084839,399.777832
	C320.083954,418.277588 320.124847,436.777344 320.093170,455.277039
	C320.081573,462.036072 319.821930,462.236084 312.995605,462.265137
	C307.829132,462.287140 302.651001,462.052429 297.499359,462.329071
	C293.123962,462.563995 291.662506,460.895935 291.701660,456.551208
	C291.871307,437.719604 291.779053,418.885651 291.780975,400.052551
	C291.782104,388.932831 291.781158,377.813141 290.583099,366.195618
	C273.882721,392.075867 257.182343,417.956146 239.818909,444.863922
	C222.804459,418.312469 206.352966,392.639496 189.658936,366.588043
	C187.703827,368.752411 188.325302,370.801575 188.322678,372.611115
	C188.282425,400.277283 188.310913,427.943573 188.309830,455.609833
	C188.309570,462.217651 188.284576,462.231964 181.591034,462.259949
	C176.091187,462.282990 170.585098,462.117462 165.093506,462.333557
	C161.581985,462.471741 160.226517,460.879272 160.275787,457.660278
	C160.331833,453.999481 160.567154,450.339478 160.553391,446.679779
	C160.430649,414.018707 160.227707,381.357819 160.146774,348.696686
	C160.122864,339.046387 160.589691,329.393127 160.470642,319.745667
	C160.422501,315.845367 161.999161,314.858307 165.498856,314.949554
	C171.494461,315.106018 177.504608,315.159485 183.494553,314.913330
	C187.259399,314.758575 189.547165,316.105560 191.626251,319.309845
	C204.414276,339.018799 217.424728,358.583405 230.562195,378.497375
z"/>
<path fill="#000000" opacity="1.000000" stroke="none"
	d="
M471.636658,400.862061
	C474.005615,378.478119 491.266479,359.547607 513.542297,354.995789
	C530.360535,351.559174 546.365112,353.003571 560.270447,364.436920
	C560.618652,364.723267 561.167480,364.765808 561.599487,364.914062
	C561.881531,364.614014 562.260498,364.402893 562.301514,364.139282
	C563.596191,355.808899 563.591187,355.807098 572.197998,355.790436
	C575.197632,355.784607 578.197388,355.770813 581.196960,355.785492
	C589.267212,355.825043 589.277039,355.830414 589.277466,363.696564
	C589.279236,393.859802 589.280212,424.023010 589.263306,454.186249
	C589.261353,457.679016 589.155518,461.142670 588.533936,464.628021
	C584.114075,489.413971 566.866638,505.455658 541.817627,508.224701
	C526.255981,509.944946 511.243378,508.696838 497.114868,501.344360
	C490.950226,498.136322 485.897186,493.630157 481.455627,488.342712
	C479.362427,485.850891 478.948242,483.981140 482.206573,481.944092
	C486.862000,479.033600 491.361633,475.841095 495.714844,472.492249
	C498.342010,470.471191 499.858398,471.079346 501.922211,473.362549
	C513.058289,485.682434 527.068542,488.484100 542.474731,484.181519
	C557.645752,479.944702 565.681519,464.888489 561.874146,448.950653
	C539.741089,466.853485 516.195251,468.526520 492.973297,452.544708
	C475.500763,440.519775 469.162964,422.381104 471.636658,400.862061
M554.830261,429.303711
	C563.825684,417.684570 565.912292,405.064209 558.898438,391.956970
	C552.244507,379.522369 540.824463,375.486969 527.295959,376.265625
	C513.630554,377.052155 502.389038,386.570312 498.838074,400.387848
	C495.495819,413.393158 501.195557,427.788208 512.450806,434.767517
	C525.668579,442.963806 542.036865,441.037537 554.830261,429.303711
z"/>
<path fill="#000000" opacity="1.000000" stroke="none"
	d="
M724.793701,405.403473
	C724.900940,428.069336 717.161438,446.315643 697.198303,457.695221
	C678.312256,468.460876 656.252380,466.142609 635.931030,451.611511
	C635.931030,462.402802 635.937073,472.812622 635.928772,483.222443
	C635.923950,489.219116 635.841125,495.216370 635.900085,501.212280
	C635.932739,504.540985 634.501404,506.097870 631.114502,506.045532
	C625.119263,505.952850 619.122009,505.992157 613.125549,505.985718
	C610.279602,505.982666 608.804749,504.685608 608.866821,501.727844
	C608.926208,498.897491 608.858459,496.064636 608.858276,493.232880
	C608.855835,450.088898 608.849060,406.944885 608.860046,363.800903
	C608.862061,355.740021 608.895691,355.746338 616.823669,355.775177
	C620.821472,355.789734 624.837402,356.014648 628.812744,355.715179
	C633.697449,355.347168 636.616089,356.629791 636.008728,362.203186
	C635.912354,363.087830 636.392578,364.035309 636.777344,365.689667
	C643.503845,359.973206 650.677368,356.414886 658.745544,354.643463
	C691.254761,347.505920 720.552734,368.430573 724.262024,401.499542
	C724.391907,402.657166 724.569092,403.809509 724.793701,405.403473
M697.207642,417.610779
	C698.674255,412.581177 698.933960,407.579773 697.896484,402.354462
	C694.922485,387.375244 684.437317,377.292175 670.370483,376.296478
	C654.552185,375.176819 641.940369,383.229126 636.925659,397.650177
	C632.114136,411.486877 637.058105,427.586945 648.505859,435.541748
	C663.922852,446.254730 690.039856,441.477142 697.207642,417.610779
z"/>
<path fill="#000000" opacity="1.000000" stroke="none"
	d="
M455.213562,374.001221
	C455.210236,401.321716 455.222046,428.142578 455.200562,454.963440
	C455.194794,462.141724 455.076050,462.221619 447.940399,462.242310
	C443.275909,462.255829 438.596985,462.014496 433.950958,462.307190
	C429.482117,462.588715 427.294525,461.132050 427.841614,456.409485
	C427.988800,455.138977 427.702972,453.818268 427.546448,451.485321
	C412.555115,464.963135 395.502625,466.474762 377.569366,462.143524
	C365.436829,459.213257 355.973450,451.962036 348.920776,441.698273
	C333.268158,418.919128 336.001038,387.488190 354.923035,368.617432
	C372.803619,350.785217 407.356018,347.620575 426.811523,364.654083
	C427.063049,364.491058 427.514923,364.355591 427.545380,364.155762
	C428.824280,355.772003 428.819611,355.766266 437.489807,355.762299
	C441.987671,355.760254 446.486145,355.829163 450.983154,355.771881
	C453.927063,355.734375 455.243195,357.101288 455.215881,360.007843
	C455.173676,364.505341 455.212036,369.003632 455.213562,374.001221
M420.753845,430.244446
	C422.123962,428.161255 423.662842,426.168610 424.836884,423.980194
	C432.656799,409.404053 428.430511,390.190155 415.566223,381.499146
	C401.937531,372.291565 382.106049,375.252167 372.320160,387.955353
	C361.595215,401.877472 363.333984,422.029785 376.218628,433.137817
	C389.423248,444.521606 408.049286,443.524841 420.753845,430.244446
z"/>
<path fill="#000000" opacity="1.000000" stroke="none"
	d="
M802.014404,451.013733
	C784.757385,435.798065 778.268250,411.977661 785.997314,390.240173
	C793.939026,367.904510 810.406677,355.844391 833.799194,353.710754
	C871.123291,350.306488 894.316833,378.074097 892.051514,413.551300
	C891.781799,417.775391 889.332947,418.177765 885.979187,418.167145
	C863.333496,418.095398 840.687622,418.101349 818.041748,418.119965
	C815.947327,418.121704 813.743164,417.728760 811.836060,418.895813
	C812.897766,429.610474 823.883545,439.417206 836.009399,440.688141
	C846.375183,441.774658 855.901062,439.922974 863.945496,432.775421
	C865.303284,431.569031 866.739014,430.149628 868.770813,431.550812
	C874.766663,435.685822 880.742859,439.849304 886.699463,443.982727
	C872.874756,466.041473 826.348572,472.313934 802.014404,451.013733
M836.762146,376.238312
	C823.418823,377.516632 812.778809,386.270630 812.395569,396.350006
	C812.833862,396.517853 813.291687,396.845612 813.750244,396.846802
	C829.577515,396.887878 845.404907,396.895844 861.232239,396.914337
	C864.888916,396.918610 864.770752,395.022339 863.789368,392.306030
	C860.009155,381.842529 850.965454,376.218781 836.762146,376.238312
z"/>
<path fill="#000000" opacity="1.000000" stroke="none"
	d="
M742.582275,461.375061
	C741.416321,459.312866 741.670471,457.451538 741.669556,455.636261
	C741.653564,424.483948 741.762512,393.330933 741.555359,362.180023
	C741.521667,357.115967 743.047058,355.290131 748.092773,355.664581
	C753.063965,356.033508 758.100586,356.036835 763.074768,355.701202
	C767.876526,355.377197 769.081848,357.568848 769.061768,361.889496
	C768.949585,386.044250 768.995544,410.199707 768.989197,434.354950
	C768.987244,441.851379 768.925476,449.348633 769.018738,456.843903
	C769.068298,460.829315 767.474792,462.583557 763.333252,462.286652
	C756.545105,461.799957 749.700195,462.958313 742.582275,461.375061
z"/>
<path fill="#000000" opacity="1.000000" stroke="none"
	d="
M179.960510,243.074600
	C181.636322,238.858490 183.350037,235.450089 188.589844,236.029739
	C191.202515,236.318756 192.873611,237.141663 193.968582,239.600616
	C201.212448,255.868011 208.544952,272.095947 215.839340,288.340881
	C216.247742,289.250366 216.634491,290.190155 216.161392,291.209808
	C208.319748,293.800385 205.488953,292.697418 202.412155,285.325928
	C201.137360,282.271729 199.319443,280.968781 195.992523,281.087738
	C190.671402,281.278015 185.331787,281.276001 180.011887,281.060669
	C176.509491,280.918976 174.603882,282.247406 173.222977,285.506622
	C170.081146,292.921967 168.147263,293.607178 158.488022,291.039520
	C165.642563,275.063873 172.727158,259.244446 179.960510,243.074600
M190.570419,270.706543
	C191.974838,270.491058 193.614365,270.955841 194.932053,268.715668
	C192.856995,263.984894 190.621658,258.888733 187.871185,252.618164
	C184.476715,259.084198 182.165848,264.241791 180.248154,270.721466
	C183.942688,270.721466 186.860657,270.721466 190.570419,270.706543
z"/>
<path fill="#000000" opacity="1.000000" stroke="none"
	d="
M236.583954,253.146210
	C246.215866,250.529663 254.056458,253.104385 258.970642,260.226105
	C263.667694,267.033112 263.780548,277.714325 259.224640,284.272247
	C253.590836,292.381714 246.195999,293.974243 231.309967,289.904266
	C231.309967,294.726166 231.198868,299.347015 231.346115,303.959656
	C231.458252,307.472565 229.456894,308.145294 226.596909,308.089691
	C223.845383,308.036224 220.957397,308.149323 220.952011,304.234924
	C220.930023,288.264465 220.868271,272.292877 221.042175,256.324127
	C221.080917,252.767303 225.658859,251.232010 230.635406,253.433701
	C232.823074,254.401581 234.377014,254.119598 236.583954,253.146210
M246.754868,262.550903
	C245.647537,262.209625 244.561874,261.738220 243.429123,261.549683
	C238.617889,260.749023 234.148941,263.353943 232.311981,267.940491
	C230.314987,272.926605 231.692154,278.545776 235.606842,281.384308
	C239.653076,284.318207 244.536728,284.152191 248.451324,280.947632
	C254.079285,276.340485 253.621292,268.351532 246.754868,262.550903
z"/>
<path fill="#000000" opacity="1.000000" stroke="none"
	d="
M266.365601,267.808716
	C270.010986,254.344864 281.034454,248.813690 293.446442,253.998520
	C295.159332,254.714050 296.122589,254.560486 297.828766,253.580536
	C303.302277,250.436829 307.313721,253.013229 307.323639,259.301544
	C307.337555,268.131744 307.339539,276.962036 307.307709,285.792175
	C307.284576,292.216766 303.413544,294.392670 297.683289,290.921204
	C296.098053,289.960846 295.165070,289.998718 293.695343,290.697021
	C286.385223,294.170105 279.335846,293.500397 273.121124,288.389496
	C266.801788,283.192535 264.724091,276.237122 266.365601,267.808716
M276.272552,270.848450
	C276.357666,279.541107 281.549866,284.815125 288.449097,283.216797
	C294.147308,281.896729 297.198578,277.609192 296.843597,271.420990
	C296.537384,266.082642 292.915405,262.268311 287.422333,261.499390
	C282.394012,260.795563 278.353973,263.910706 276.272552,270.848450
z"/>
<path fill="#000000" opacity="1.000000" stroke="none"
	d="
M363.390442,269.719238
	C363.348755,275.981323 363.197876,281.815094 363.364716,287.639740
	C363.468323,291.257477 361.761475,292.259094 358.502167,292.182465
	C355.352966,292.108398 352.871368,291.699799 352.886536,287.666107
	C352.945435,272.008972 352.967621,256.351196 352.879608,240.694366
	C352.857086,236.685181 355.162720,236.105255 358.366150,236.085159
	C361.813721,236.063553 363.506317,237.231354 363.414459,241.050369
	C363.304260,245.630493 362.845703,250.278976 363.786407,254.703781
	C364.242859,254.864502 364.427856,255.002869 364.537170,254.957779
	C381.034851,248.153320 389.673645,253.831253 389.939392,271.836670
	C390.020294,277.319000 389.496216,282.807617 389.416382,288.295807
	C389.363281,291.945465 387.008087,292.080170 384.331299,292.123932
	C381.403870,292.171783 379.548828,291.366028 379.631866,287.919312
	C379.764191,282.425842 379.683655,276.926331 379.639313,271.429810
	C379.589630,265.272766 377.343964,262.079254 372.732483,261.480499
	C368.358612,260.912567 365.174500,263.580475 363.390442,269.719238
z"/>
<path fill="#000000" opacity="1.000000" stroke="none"
	d="
M398.636780,258.719818
	C404.935211,252.282990 412.120087,250.285263 420.315552,253.105087
	C428.060883,255.769989 431.855072,261.638519 432.785126,269.607727
	C433.424591,275.087189 432.573120,276.221954 427.185852,276.263031
	C420.095734,276.317139 413.004913,276.276337 405.747070,276.276337
	C407.325745,282.833893 413.470886,285.880157 418.973969,282.338074
	C424.420715,278.832245 426.978180,281.654144 430.088715,284.943176
	C425.500244,293.051178 411.777100,295.157501 402.500366,289.358734
	C392.758850,283.269501 390.945831,269.867157 398.636780,258.719818
M421.353973,265.903564
	C419.574585,261.913727 416.137054,260.944366 412.307953,261.459015
	C409.195282,261.877380 406.249634,263.043121 405.708221,267.617981
	C411.150543,267.334686 416.281433,269.054657 421.353973,265.903564
z"/>
<path fill="#000000" opacity="1.000000" stroke="none"
	d="
M772.484497,325.479736
	C770.513000,335.243469 763.689636,341.002380 755.092651,340.502991
	C747.088196,340.037964 740.201965,333.288116 739.700439,325.415405
	C739.108093,316.119293 744.727234,308.901825 753.900330,307.176331
	C764.336060,305.213318 772.481750,313.039551 772.484497,325.479736
z"/>
<path fill="#000000" opacity="1.000000" stroke="none"
	d="
M343.871460,265.003967
	C341.633179,266.836945 340.332184,265.537659 338.801208,264.373779
	C333.730682,260.518982 328.845306,260.721863 324.963562,264.782867
	C321.218109,268.701263 321.080109,275.916718 324.674469,279.898041
	C328.403381,284.028412 333.684143,284.662964 338.489258,280.644897
	C342.754883,277.078003 345.045471,280.328186 347.203827,282.643524
	C350.216248,285.875122 346.394714,287.323822 344.583160,288.712311
	C336.355225,295.018799 323.875732,293.771271 316.858185,286.166626
	C309.923370,278.651642 309.904816,266.638672 316.815887,258.764069
	C323.571014,251.067169 335.665405,249.680084 344.067413,255.638672
	C349.218048,259.291443 349.237335,260.941071 343.871460,265.003967
z"/>
</svg>
