<svg xmlns="http://www.w3.org/2000/svg" viewBox="264 63 497 140">
  <path fill="#004aaf" d="Layer_1"/>
  <path fill="#004aaf" d="M369.317322,85.008224 C369.314056,111.163292 369.317719,136.820343 369.299469,162.477402 C369.294647,169.240616 369.262878,169.315582 362.806763,169.262405 C349.513977,169.152954 351.036835,170.963303 350.971527,157.677460 C350.898651,142.850342 350.986755,128.022476 350.965393,113.194977 C350.962860,111.434265 351.325836,109.606125 350.258850,107.428093 C345.293365,115.251427 340.520050,122.789024 335.728638,130.315094 C332.508453,135.373169 329.239166,140.400040 326.034119,145.467636 C321.695740,152.327194 314.195221,152.364166 309.879944,145.464722 C302.903107,134.309875 296.003082,123.106964 289.013458,111.960205 C287.816162,110.050774 286.994385,107.819649 284.918396,106.368217 C283.818054,108.177467 284.336060,110.032669 284.331299,111.781532 C284.284454,128.941574 284.186035,146.102997 284.372131,163.261093 C284.420105,167.682617 283.239075,169.514465 278.483643,169.375397 C264.103271,168.954819 265.977478,171.209976 265.933228,156.949585 C265.852051,130.792969 265.885956,104.635948 265.900269,78.479118 C265.904388,70.971657 266.119446,71.470337 273.334015,70.693619 C281.426483,69.822395 286.015289,72.886040 289.995636,79.817856 C297.785339,93.383705 306.519501,106.407402 314.871368,119.650055 C315.729675,121.011047 316.223328,122.700401 318.161194,123.508591 C321.857574,120.203964 323.701233,115.651810 326.261902,111.670288 C333.738098,100.045723 340.934052,88.240799 348.230865,76.501015 C351.263000,71.622612 362.492157,68.559242 367.611359,71.165108 C369.086456,71.915985 369.221619,73.180664 369.245392,74.515015 C369.304688,77.846107 369.296906,81.178398 369.317322,85.008224 z"/>
  <path fill="#004aaf" d="M489.405731,175.743332 C490.905487,175.915192 491.596832,176.545059 492.225677,177.390182 C498.656372,186.032990 513.421814,188.858109 522.503601,183.078735 C526.851624,180.311844 529.055115,176.029922 529.670715,171.029922 C530.073730,167.756729 530.013794,164.426514 530.217896,159.851425 C520.862183,168.746124 510.637115,172.091614 498.915527,169.866226 C490.668976,168.300583 483.412537,164.712845 477.991547,158.133011 C466.388580,144.049652 466.580750,121.649208 478.204407,107.148033 C484.654144,99.101631 493.262970,95.281189 503.219330,94.156448 C513.113464,93.038727 521.896057,96.027672 530.206909,102.950623 C530.072510,96.169884 533.933472,95.637169 538.447815,96.023048 C539.274109,96.093681 540.112793,96.014320 540.945801,96.012085 C549.290527,95.989693 549.301880,95.990143 549.306396,104.161591 C549.315369,120.488625 549.221985,136.816376 549.354309,153.142349 C549.408752,159.867584 548.431335,166.439285 546.864258,172.895630 C542.259094,191.868546 528.761658,202.272156 509.158142,201.795456 C494.476929,201.438446 481.961395,196.830948 475.199829,182.415344 C474.307098,180.512009 473.024200,178.606445 474.348969,175.712173 C479.067841,175.712173 484.019714,175.712173 489.405731,175.743332 M511.309143,110.616623 C508.994873,110.831970 506.651581,110.884262 504.371307,111.290474 C493.660004,113.198547 485.458282,125.598175 487.579529,136.551407 C489.883850,148.449936 501.265808,156.558838 512.468079,154.282791 C523.516235,152.038040 531.393372,143.183868 531.432861,132.965698 C531.478577,121.139839 524.624878,113.248405 511.309143,110.616623 z"/>
  <path fill="#004aaf" d="M581.339417,165.785675 C581.327271,176.017624 581.230774,185.847687 581.360291,195.674789 C581.404480,199.034241 580.343262,200.493073 576.789490,200.411957 C560.833496,200.047821 563.777039,202.436584 563.682434,187.755569 C563.498840,159.269485 563.709778,130.780823 563.519409,102.294838 C563.487671,97.543953 564.928650,95.417320 569.743347,95.955437 C570.729553,96.065666 571.740540,95.940521 572.739929,95.949142 C577.329285,95.988747 582.965088,94.465096 581.554504,103.630104 C592.115295,94.797134 602.916809,92.036606 615.065308,95.089653 C622.962463,97.074318 629.434265,101.136551 634.312195,107.671768 C645.786865,123.044983 644.773071,146.551758 632.076904,159.848175 C619.023743,173.518448 600.186523,174.474762 582.272583,162.354706 C580.836548,163.012009 581.591736,164.357300 581.339417,165.785675 M582.630859,124.310875 C580.132263,132.491043 579.839966,140.438324 585.829590,147.361786 C592.191345,154.715439 602.099548,156.608612 611.302795,152.507080 C620.087036,148.592270 625.006775,139.270981 623.654114,129.105362 C622.468262,120.193886 615.224548,112.602409 606.589233,111.221336 C595.975403,109.523827 587.885620,113.758057 582.630859,124.310875 z"/>
  <path fill="#004aaf" d="M446.515137,116.719421 C448.357758,116.382614 449.809143,116.079361 451.260559,115.776108 C446.719604,113.232399 442.357605,108.972801 437.085602,110.993324 C431.608643,113.092415 428.948181,118.567825 428.527832,124.176445 C428.215973,128.337601 426.324646,129.453720 422.937988,130.273941 C417.091919,131.689835 411.342651,133.396500 407.333130,138.453598 C401.590851,145.696198 402.693237,149.525543 411.071930,153.159164 C423.844879,158.698471 441.470734,149.290451 439.889771,133.892624 C439.396881,129.092178 441.167847,126.425133 445.905518,125.190292 C449.549866,124.240410 452.980652,122.476669 456.531464,121.932129 C458.513641,123.620209 458.131927,125.569054 458.142090,127.327194 C458.212494,139.483063 458.100220,151.641159 458.296936,163.794495 C458.362915,167.869370 456.972687,169.711639 452.814331,169.304520 C451.165405,169.143112 449.477295,169.176697 447.823029,169.314056 C442.827545,169.728836 438.594147,169.275574 439.788361,161.653824 C433.963501,166.004898 428.622467,169.201935 422.242371,170.298294 C400.355042,174.059402 381.993683,159.593765 380.577759,137.371567 C379.125916,114.586494 391.177063,98.579498 412.578461,95.158195 C420.967834,93.817039 428.916016,95.634254 435.876282,100.439087 C440.401642,103.563049 444.920868,106.439354 450.081146,108.463440 C454.206940,110.081772 457.997742,112.537750 459.934418,117.774490 C451.613342,119.727577 443.719513,121.680855 434.212036,120.898544 C437.967377,116.402657 442.551758,118.016113 446.515137,116.719421 M407.666656,119.215866 C409.988617,124.415726 413.788696,126.218971 418.699097,124.451057 C421.835541,123.321823 426.040985,117.170860 425.326172,114.758217 C424.473633,111.880692 417.892822,109.313644 414.008179,110.507584 C410.130676,111.699326 408.051361,114.476967 407.666656,119.215866 z"/>
  <path fill="#004aaf" d="M707.665100,96.356644 C722.408936,91.780579 735.803467,93.563210 747.400696,103.418961 C756.766541,111.378525 760.214722,122.119980 760.024048,134.211334 C759.965332,137.931198 757.792480,138.423309 754.751526,138.411514 C739.432434,138.352036 724.112976,138.401184 708.793640,138.411682 C706.653137,138.413147 704.512634,138.411880 702.390137,138.411880 C702.261230,146.505707 709.978210,153.717941 719.283813,154.615540 C725.509644,155.216064 731.241455,154.010468 735.836121,149.395279 C737.062927,148.162979 738.402893,147.228714 740.170105,147.217072 C745.615967,147.181198 751.062134,147.203995 756.612366,147.203995 C755.000244,161.044449 741.836304,169.780640 722.508057,170.898346 C704.229980,171.955353 688.073120,160.035370 684.052429,142.527008 C679.458130,122.521408 688.721191,104.181053 707.665100,96.356644 M723.206299,110.530708 C711.805786,110.850365 704.057983,116.347603 702.977600,125.064651 C703.552185,125.243584 704.159180,125.595108 704.767822,125.597954 C715.246399,125.646881 725.725159,125.644447 736.203918,125.672554 C740.041748,125.682846 740.304199,123.637115 739.022949,120.772194 C736.125000,114.292633 730.535828,111.763962 723.206299,110.530708 z"/>
  <path fill="#004aaf" d="M671.086914,138.000000 C671.078674,146.978012 671.012268,155.456619 671.094421,163.933777 C671.130066,167.615402 669.830139,169.389343 665.843994,169.310303 C650.608093,169.008270 652.953430,171.032150 652.861755,156.908173 C652.743042,138.622742 652.910583,120.334923 652.703308,102.050987 C652.652649,97.582504 653.982483,95.800690 658.636353,95.887131 C673.194580,96.157516 670.968567,95.120071 671.074890,108.076309 C671.155457,117.883583 671.089722,127.692062 671.086914,138.000000 z"/>
  <path fill="#004aaf" d="M672.345703,79.829781 C668.682617,85.297241 663.915955,87.348389 659.079712,85.849831 C654.586243,84.457489 651.756042,80.605728 651.637512,75.721359 C651.496338,69.902504 654.080505,66.161697 659.490906,64.357430 C663.570129,62.997082 667.229126,64.146088 670.076233,66.975105 C673.561951,70.438644 674.197815,74.806412 672.345703,79.829781 z"/>
  <path fill="#004aaf" d="M417.723602,113.034851 C420.925354,114.553780 422.080536,116.739784 420.697815,119.678009 C419.660126,121.882980 417.593414,122.683952 415.251526,122.138550 C412.939697,121.600136 411.287567,120.121094 411.510773,117.580849 C411.812012,114.152420 414.012848,112.742256 417.723602,113.034851 z"/>
</svg>
